<svg xmlns="http://www.w3.org/2000/svg" width="276.965" height="50" viewBox="0 0 276.965 50">
  <g id="Group_210" data-name="Group 210" transform="translate(-1084.477 -530.16)">
    <rect id="Rectangle_5" data-name="Rectangle 5" width="104.682" height="29.145" transform="translate(1256.76 530.341)" fill="#36b4bf"/>
    <g id="Group_208" data-name="Group 208">
      <g id="Group_207" data-name="Group 207">
        <path id="Path_81" data-name="Path 81" d="M1103.622,531.476c7.3,0,11.249,2.237,11.249,2.237a6.541,6.541,0,0,1-1.973,5,25.593,25.593,0,0,0-8.487-1.513c-7.632,0-12.96,4.013-12.96,18.684s5.328,18.42,12.96,18.42a28.166,28.166,0,0,0,9.144-1.513,7.377,7.377,0,0,1,2.04,5.132s-4.277,2.237-11.973,2.237c-12.566,0-19.145-8.29-19.145-24.342C1084.477,539.9,1090.99,531.476,1103.622,531.476Z"/>
        <path id="Path_82" data-name="Path 82" d="M1127.106,564.239c.526,7.828,3.684,10.328,9.144,10.328a15.952,15.952,0,0,0,7.763-1.907,6.778,6.778,0,0,1,2.105,4.737s-3.75,2.763-10.921,2.763c-10.131,0-14.868-6.25-14.868-18.158,0-12.434,5.855-17.763,14.606-17.763,8.091,0,13.025,4.474,13.025,13.223a28.088,28.088,0,0,1-.723,6.777Zm7.829-14.8c-4.277,0-7.3,2.828-7.829,10.131h14.078a22.855,22.855,0,0,0,.2-2.961C1141.381,552.725,1139.8,549.437,1134.935,549.437Z"/>
        <path id="Path_83" data-name="Path 83" d="M1179.4,530.16a8.772,8.772,0,0,1,3.223.461v48.42a7.927,7.927,0,0,1-2.763.46,9.954,9.954,0,0,1-2.96-.46l-.461-3.553c-1.907,2.9-4.934,4.672-9.868,4.672-7.5,0-12.368-4.54-12.368-17.961s4.868-17.96,12.368-17.96c4.605,0,7.566,1.579,9.474,4.276V530.621A9.623,9.623,0,0,1,1179.4,530.16Zm-10.527,19.474c-5.262,0-7.894,2.763-7.894,12.565s2.632,12.565,7.894,12.565c4.606,0,7.172-3.881,7.172-8.42v-8.487C1175.983,553.449,1173.417,549.634,1168.877,549.634Z"/>
        <path id="Path_84" data-name="Path 84" d="M1204.2,544.239c9.539,0,12.565,4.276,12.565,12.763v22.039a5.172,5.172,0,0,1-2.565.46,6.745,6.745,0,0,1-2.632-.46l-.987-4.211c-1.71,3.487-5.329,5.33-10.329,5.33-6.184,0-10.2-3.619-10.2-10.987,0-7.171,4.408-10.329,12.632-10.329a70.3,70.3,0,0,1,7.5.4V556.8c0-4.474-1.71-7.04-6.776-7.04a27.4,27.4,0,0,0-8.816,1.645,5.216,5.216,0,0,1-1.513-1.973,5.689,5.689,0,0,1-.394-2.764A28.569,28.569,0,0,1,1204.2,544.239Zm-.658,19.079c-4.408,0-6.711,1.71-6.711,5.855,0,4.276,2.171,5.921,5.724,5.921,5.2,0,7.631-4.408,7.631-9.079v-2.3C1208.676,563.581,1206.045,563.318,1203.545,563.318Z"/>
        <path id="Path_85" data-name="Path 85" d="M1240.712,544.3a10.344,10.344,0,0,1,5.724,1.646,7.444,7.444,0,0,1-2.9,5.525,6.647,6.647,0,0,0-4.079-1.381c-2.565,0-5.065,1.974-6.776,5v23.947a9.435,9.435,0,0,1-3.289.46,8.579,8.579,0,0,1-3.29-.46V545.357a8.578,8.578,0,0,1,3.29-.46,9.434,9.434,0,0,1,3.289.46v4.54C1235.186,545.752,1238.081,544.3,1240.712,544.3Z"/>
      </g>
    </g>
    <g id="Group_209" data-name="Group 209">
      <path id="Path_86" data-name="Path 86" d="M1274.209,542.8a31.089,31.089,0,0,1-.743-5.083h-.149a33.981,33.981,0,0,1-.773,5.083l-2.674,12.217a12.248,12.248,0,0,1-2.527.267,9.642,9.642,0,0,1-2.259-.267l-5.559-20.867a5.3,5.3,0,0,1,1.9-.267,5.09,5.09,0,0,1,1.9.267l3.389,12.722c.535,2.051.921,4.4.921,4.4h.119s.3-2.289.773-4.369l2.913-12.752a5.664,5.664,0,0,1,2.021-.267,5.869,5.869,0,0,1,2.081.267l2.883,12.722a40,40,0,0,1,.714,4.4h.118a44.15,44.15,0,0,1,.922-4.369l3.448-12.752a5.39,5.39,0,0,1,1.724-.267,5.336,5.336,0,0,1,1.783.267l-5.647,20.867a8.533,8.533,0,0,1-2.23.267,10.5,10.5,0,0,1-2.348-.267Z" fill="#fff"/>
      <path id="Path_87" data-name="Path 87" d="M1296.622,533.885a8.592,8.592,0,0,1,2.319.267l7.1,20.867a6.283,6.283,0,0,1-2.081.267,4.73,4.73,0,0,1-1.843-.267l-1.6-4.756H1292.4l-1.6,4.756a5.3,5.3,0,0,1-1.842.267,4.844,4.844,0,0,1-1.754-.267l7.1-20.867A9.743,9.743,0,0,1,1296.622,533.885Zm-.208,3.983a29.807,29.807,0,0,1-.891,3.3l-2.081,6.034h6.034l-2.021-6.034a30.594,30.594,0,0,1-.922-3.3Z" fill="#fff"/>
      <path id="Path_88" data-name="Path 88" d="M1313.774,546.934a32.826,32.826,0,0,1,1.1,4.28h.119a32.658,32.658,0,0,1,1.13-4.31l4.25-12.722a3.917,3.917,0,0,1,1.754-.3,5.96,5.96,0,0,1,1.961.3l-6.955,20.867a10.784,10.784,0,0,1-2.289.237,10.433,10.433,0,0,1-2.288-.237l-6.926-20.808a5.106,5.106,0,0,1,2.11-.356,4.063,4.063,0,0,1,1.813.3Z" fill="#fff"/>
      <path id="Path_89" data-name="Path 89" d="M1339.425,533.885a3.832,3.832,0,0,1,.3,1.427,4.312,4.312,0,0,1-.3,1.634h-8.471v6h6.985a4.287,4.287,0,0,1,.3,1.487,4.118,4.118,0,0,1-.3,1.575h-6.985v6.213h8.768a4.274,4.274,0,0,1,.3,1.486,4.119,4.119,0,0,1-.3,1.575h-12.573v-21.4Z" fill="#fff"/>
      <path id="Path_90" data-name="Path 90" d="M1350.3,533.587a17.917,17.917,0,0,1,5.974.892,4.56,4.56,0,0,1-1.01,2.973,15.275,15.275,0,0,0-4.429-.654c-2.883,0-4.251.951-4.251,2.883,0,1.873,2.586,2.378,5.172,3.3,2.676.981,5.351,2.408,5.351,6.212,0,4.132-2.586,6.391-7.669,6.391a15.722,15.722,0,0,1-6.628-1.308,5.544,5.544,0,0,1,.891-3.031,21.088,21.088,0,0,0,5.589.921c2.764,0,3.923-.98,3.923-2.883,0-1.6-1.338-2.348-3.091-2.972-3.062-1.1-7.312-1.814-7.312-6.451C1342.814,536.114,1345.251,533.587,1350.3,533.587Z" fill="#fff"/>
    </g>
  </g>
</svg>
