<?xml version="1.0" encoding="UTF-8" standalone="no"?>
<svg
   width="300"
   height="120"
   viewBox="-11 -35 300 120"
   version="1.1"
   id="svg45"
   sodipodi:docname="cedar_waves-dark.svg"
   inkscape:version="1.1.1 (3bf5ae0d25, 2021-09-20)"
   xmlns:inkscape="http://www.inkscape.org/namespaces/inkscape"
   xmlns:sodipodi="http://sodipodi.sourceforge.net/DTD/sodipodi-0.dtd"
   xmlns="http://www.w3.org/2000/svg"
   xmlns:svg="http://www.w3.org/2000/svg">
  <defs
     id="defs49" />
  <sodipodi:namedview
     id="namedview47"
     pagecolor="#ffffff"
     bordercolor="#666666"
     borderopacity="1.0"
     inkscape:pageshadow="2"
     inkscape:pageopacity="0.0"
     inkscape:pagecheckerboard="0"
     showgrid="false"
     inkscape:zoom="5.69"
     inkscape:cx="184.97364"
     inkscape:cy="104.83304"
     inkscape:window-width="1920"
     inkscape:window-height="1048"
     inkscape:window-x="-10"
     inkscape:window-y="-10"
     inkscape:window-maximized="1"
     inkscape:current-layer="Group_209" />
  <g
     id="Group_210"
     data-name="Group 210"
     transform="translate(-1084.477 -530.16)">
    <rect
       id="Rectangle_5"
       data-name="Rectangle 5"
       width="104.682"
       height="29.145"
       transform="translate(1256.76 530.341)"
       fill="#36b4bf" />
    <g
       id="Group_208"
       data-name="Group 208">
      <g
         id="Group_207"
         data-name="Group 207">
        <path
           id="Path_81"
           data-name="Path 81"
           d="M1103.622,531.476c7.3,0,11.249,2.237,11.249,2.237a6.541,6.541,0,0,1-1.973,5,25.593,25.593,0,0,0-8.487-1.513c-7.632,0-12.96,4.013-12.96,18.684s5.328,18.42,12.96,18.42a28.166,28.166,0,0,0,9.144-1.513,7.377,7.377,0,0,1,2.04,5.132s-4.277,2.237-11.973,2.237c-12.566,0-19.145-8.29-19.145-24.342C1084.477,539.9,1090.99,531.476,1103.622,531.476Z" />
        <path
           id="Path_82"
           data-name="Path 82"
           d="M1127.106,564.239c.526,7.828,3.684,10.328,9.144,10.328a15.952,15.952,0,0,0,7.763-1.907,6.778,6.778,0,0,1,2.105,4.737s-3.75,2.763-10.921,2.763c-10.131,0-14.868-6.25-14.868-18.158,0-12.434,5.855-17.763,14.606-17.763,8.091,0,13.025,4.474,13.025,13.223a28.088,28.088,0,0,1-.723,6.777Zm7.829-14.8c-4.277,0-7.3,2.828-7.829,10.131h14.078a22.855,22.855,0,0,0,.2-2.961C1141.381,552.725,1139.8,549.437,1134.935,549.437Z" />
        <path
           id="Path_83"
           data-name="Path 83"
           d="M1179.4,530.16a8.772,8.772,0,0,1,3.223.461v48.42a7.927,7.927,0,0,1-2.763.46,9.954,9.954,0,0,1-2.96-.46l-.461-3.553c-1.907,2.9-4.934,4.672-9.868,4.672-7.5,0-12.368-4.54-12.368-17.961s4.868-17.96,12.368-17.96c4.605,0,7.566,1.579,9.474,4.276V530.621A9.623,9.623,0,0,1,1179.4,530.16Zm-10.527,19.474c-5.262,0-7.894,2.763-7.894,12.565s2.632,12.565,7.894,12.565c4.606,0,7.172-3.881,7.172-8.42v-8.487C1175.983,553.449,1173.417,549.634,1168.877,549.634Z" />
        <path
           id="Path_84"
           data-name="Path 84"
           d="M1204.2,544.239c9.539,0,12.565,4.276,12.565,12.763v22.039a5.172,5.172,0,0,1-2.565.46,6.745,6.745,0,0,1-2.632-.46l-.987-4.211c-1.71,3.487-5.329,5.33-10.329,5.33-6.184,0-10.2-3.619-10.2-10.987,0-7.171,4.408-10.329,12.632-10.329a70.3,70.3,0,0,1,7.5.4V556.8c0-4.474-1.71-7.04-6.776-7.04a27.4,27.4,0,0,0-8.816,1.645,5.216,5.216,0,0,1-1.513-1.973,5.689,5.689,0,0,1-.394-2.764A28.569,28.569,0,0,1,1204.2,544.239Zm-.658,19.079c-4.408,0-6.711,1.71-6.711,5.855,0,4.276,2.171,5.921,5.724,5.921,5.2,0,7.631-4.408,7.631-9.079v-2.3C1208.676,563.581,1206.045,563.318,1203.545,563.318Z" />
        <path
           id="Path_85"
           data-name="Path 85"
           d="M1240.712,544.3a10.344,10.344,0,0,1,5.724,1.646,7.444,7.444,0,0,1-2.9,5.525,6.647,6.647,0,0,0-4.079-1.381c-2.565,0-5.065,1.974-6.776,5v23.947a9.435,9.435,0,0,1-3.289.46,8.579,8.579,0,0,1-3.29-.46V545.357a8.578,8.578,0,0,1,3.29-.46,9.434,9.434,0,0,1,3.289.46v4.54C1235.186,545.752,1238.081,544.3,1240.712,544.3Z" />
      </g>
    </g>
    <g
       id="Group_209"
       data-name="Group 209">
      <path
         id="Path_86"
         data-name="Path 86"
         d="M1274.209,542.8a31.089,31.089,0,0,1-.743-5.083h-.149a33.981,33.981,0,0,1-.773,5.083l-2.674,12.217a12.248,12.248,0,0,1-2.527.267,9.642,9.642,0,0,1-2.259-.267l-5.559-20.867a5.3,5.3,0,0,1,1.9-.267,5.09,5.09,0,0,1,1.9.267l3.389,12.722c.535,2.051.921,4.4.921,4.4h.119s.3-2.289.773-4.369l2.913-12.752a5.664,5.664,0,0,1,2.021-.267,5.869,5.869,0,0,1,2.081.267l2.883,12.722a40,40,0,0,1,.714,4.4h.118a44.15,44.15,0,0,1,.922-4.369l3.448-12.752a5.39,5.39,0,0,1,1.724-.267,5.336,5.336,0,0,1,1.783.267l-5.647,20.867a8.533,8.533,0,0,1-2.23.267,10.5,10.5,0,0,1-2.348-.267Z"
         fill="#fff" />
      <path
         id="Path_87"
         data-name="Path 87"
         d="M1296.622,533.885a8.592,8.592,0,0,1,2.319.267l7.1,20.867a6.283,6.283,0,0,1-2.081.267,4.73,4.73,0,0,1-1.843-.267l-1.6-4.756H1292.4l-1.6,4.756a5.3,5.3,0,0,1-1.842.267,4.844,4.844,0,0,1-1.754-.267l7.1-20.867A9.743,9.743,0,0,1,1296.622,533.885Zm-.208,3.983a29.807,29.807,0,0,1-.891,3.3l-2.081,6.034h6.034l-2.021-6.034a30.594,30.594,0,0,1-.922-3.3Z"
         fill="#fff" />
      <path
         id="Path_88"
         data-name="Path 88"
         d="M1313.774,546.934a32.826,32.826,0,0,1,1.1,4.28h.119a32.658,32.658,0,0,1,1.13-4.31l4.25-12.722a3.917,3.917,0,0,1,1.754-.3,5.96,5.96,0,0,1,1.961.3l-6.955,20.867a10.784,10.784,0,0,1-2.289.237,10.433,10.433,0,0,1-2.288-.237l-6.926-20.808a5.106,5.106,0,0,1,2.11-.356,4.063,4.063,0,0,1,1.813.3Z"
         fill="#fff" />
      <path
         id="Path_89"
         data-name="Path 89"
         d="M1339.425,533.885a3.832,3.832,0,0,1,.3,1.427,4.312,4.312,0,0,1-.3,1.634h-8.471v6h6.985a4.287,4.287,0,0,1,.3,1.487,4.118,4.118,0,0,1-.3,1.575h-6.985v6.213h8.768a4.274,4.274,0,0,1,.3,1.486,4.119,4.119,0,0,1-.3,1.575h-12.573v-21.4Z"
         fill="#fff" />
      <path
         id="Path_90"
         data-name="Path 90"
         d="M1350.3,533.587a17.917,17.917,0,0,1,5.974.892,4.56,4.56,0,0,1-1.01,2.973,15.275,15.275,0,0,0-4.429-.654c-2.883,0-4.251.951-4.251,2.883,0,1.873,2.586,2.378,5.172,3.3,2.676.981,5.351,2.408,5.351,6.212,0,4.132-2.586,6.391-7.669,6.391a15.722,15.722,0,0,1-6.628-1.308,5.544,5.544,0,0,1,.891-3.031,21.088,21.088,0,0,0,5.589.921c2.764,0,3.923-.98,3.923-2.883,0-1.6-1.338-2.348-3.091-2.972-3.062-1.1-7.312-1.814-7.312-6.451C1342.814,536.114,1345.251,533.587,1350.3,533.587Z"
         fill="#fff" />
      <path
         style="fill:#005f61;stroke-width:0.031068;fill-opacity:1"
         d="M 183.28543,49.755339 V 35.184465 h 35.96117 35.96116 v 1.75534 1.75534 h -0.7767 -0.7767 v 10.718446 10.718446 h 0.7767 0.7767 v 2.097088 2.097087 H 219.2466 183.28543 Z m 12.10097,10.285165 c 0.2734,-0.03636 0.61501,-0.09005 0.75912,-0.119324 l 0.26204,-0.05322 1.43786,-6.570874 c 0.79083,-3.61398 1.48766,-6.842951 1.54851,-7.17549 0.18075,-0.987835 0.36694,-2.382363 0.43673,-3.271112 0.0184,-0.234378 0.0291,-0.271844 0.0779,-0.271844 0.0654,0 0.0707,0.03075 0.12366,0.714563 0.07,0.904235 0.25954,2.263726 0.4526,3.246602 0.0618,0.314551 2.85267,12.992779 2.92113,13.269906 0.014,0.05657 0.0638,0.07538 0.3479,0.131334 0.60381,0.11893 1.03806,0.163195 1.78033,0.181476 0.93973,0.02314 1.67231,-0.04435 2.33844,-0.215458 l 0.15223,-0.0391 0.31947,-1.180583 c 0.1757,-0.64932 1.44655,-5.345526 2.82412,-10.436012 1.94607,-7.191287 2.49564,-9.261038 2.46422,-9.280578 -0.0584,-0.03635 -0.65066,-0.172215 -0.9414,-0.215977 -0.34823,-0.05241 -1.26452,-0.04346 -1.66357,0.01625 -0.2785,0.04167 -0.85356,0.177841 -0.88424,0.209378 -0.008,0.0083 -3.09742,11.416503 -3.46887,12.809738 -0.29193,1.09498 -0.66424,2.821416 -0.83583,3.875844 -0.0488,0.29982 -0.0818,0.427185 -0.11083,0.427185 -0.0525,0 -0.0582,-0.0287 -0.13512,-0.683496 -0.0974,-0.828321 -0.26611,-1.882433 -0.45015,-2.81165 -0.11845,-0.59809 -2.88018,-12.868835 -3.05012,-13.552076 -0.0129,-0.05168 -0.0603,-0.08124 -0.19266,-0.119935 -0.99203,-0.290109 -2.55961,-0.307954 -3.62302,-0.04124 -0.13951,0.03499 -0.27119,0.07445 -0.29261,0.08769 -0.0311,0.01923 -2.40762,10.320813 -2.99998,13.004207 -0.22653,1.026177 -0.52244,2.690778 -0.67648,3.805488 -0.0304,0.219854 -0.053,0.297173 -0.089,0.304109 -0.0385,0.0074 -0.0595,-0.05586 -0.10328,-0.310343 -0.19687,-1.144367 -0.58064,-2.96964 -0.81491,-3.875813 -0.0595,-0.230069 -0.84732,-3.193953 -1.75075,-6.586408 -0.90343,-3.392455 -1.65202,-6.206325 -1.66353,-6.253043 -0.0179,-0.07256 -0.051,-0.0941 -0.22739,-0.147818 -0.50621,-0.154157 -0.87785,-0.198697 -1.66666,-0.199748 -0.44341,-5.9e-4 -0.84637,0.0146 -0.99418,0.03747 -0.38383,0.0594 -0.92094,0.19957 -0.93832,0.244874 -0.009,0.0224 1.23332,4.729223 2.75981,10.459607 l 2.77543,10.41888 0.32678,0.06606 c 0.30499,0.06165 0.85908,0.142521 1.18116,0.172387 0.0769,0.0071 0.51029,0.0087 0.9631,0.0036 0.61939,-0.0071 0.94642,-0.02575 1.32039,-0.07548 z m 21.03269,0.04439 c 0.34726,-0.05234 0.88994,-0.188964 0.91562,-0.230518 0.009,-0.01491 0.3718,-1.084019 0.80576,-2.375807 l 0.78901,-2.348704 4.05368,0.0079 4.05369,0.0079 0.79614,2.36635 0.79613,2.36635 0.22152,0.06442 c 0.52387,0.152336 0.6218,0.164061 1.50275,0.179929 0.93738,0.01688 1.25935,-0.01086 1.89788,-0.163538 l 0.33591,-0.08032 -0.38719,-1.139409 c -4.21211,-12.39506 -6.70828,-19.72304 -6.72519,-19.743053 -0.0644,-0.07622 -1.01729,-0.229858 -1.66121,-0.267836 -0.88295,-0.05208 -2.14485,0.04159 -2.79169,0.20722 l -0.21304,0.05455 -3.5511,10.438835 c -3.4224,10.060521 -3.54869,10.439738 -3.48469,10.463767 0.14107,0.05297 0.57599,0.156687 0.81333,0.193963 0.36063,0.05664 1.45164,0.05547 1.83269,-0.002 z m 26.23722,-0.01183 c 0.12815,-0.01784 0.40827,-0.06229 0.62249,-0.09878 l 0.38949,-0.06635 3.47363,-10.421039 c 1.91049,-5.731572 3.46689,-10.438603 3.45865,-10.460068 -0.0135,-0.03513 -0.43754,-0.154063 -0.84524,-0.237054 -0.0854,-0.01739 -0.41011,-0.04845 -0.7215,-0.06901 -0.82697,-0.05461 -1.40925,0.01151 -1.97917,0.224748 l -0.16879,0.06315 -0.41829,1.249062 c -2.59689,7.754597 -4.14515,12.429927 -4.30263,12.99275 -0.21486,0.767896 -0.42131,1.608652 -0.56297,2.292617 -0.0523,0.252785 -0.0952,0.465989 -0.0952,0.473787 0,0.0078 -0.0207,0.01418 -0.046,0.01418 -0.0253,0 -0.0532,-0.03146 -0.0619,-0.0699 -0.009,-0.03845 -0.0718,-0.336539 -0.14025,-0.662427 -0.15908,-0.757916 -0.35463,-1.546879 -0.57314,-2.31233 -0.0951,-0.333204 -1.16827,-3.614288 -2.38479,-7.291297 l -2.21186,-6.685472 -0.12598,-0.04651 c -0.62075,-0.229196 -1.4254,-0.313778 -2.28521,-0.240213 -0.5996,0.0513 -1.47258,0.260217 -1.51153,0.361731 -0.0102,0.02666 6.85731,20.75214 6.89869,20.819484 0.009,0.01455 1.00515,0.170348 1.24585,0.194838 0.35274,0.03589 2.03522,0.01731 2.34564,-0.02589 z"
         id="path352"
         transform="translate(1073.477,495.16)" />
      <path
         style="fill:#008080;stroke-width:0.031068"
         d="m 220.00776,51.995404 c 0,-0.01534 0.45988,-1.360973 1.02195,-2.990291 0.98901,-2.866925 1.22943,-3.587469 1.43068,-4.287852 0.0826,-0.287494 0.37979,-1.482244 0.45848,-1.843265 0.0154,-0.07051 0.0474,-0.12799 0.0743,-0.133162 0.0371,-0.0072 0.0787,0.119257 0.19377,0.59008 0.28517,1.166309 0.47784,1.784925 1.6123,5.176702 0.63062,1.885403 1.15414,3.447733 1.1634,3.471845 0.0144,0.03755 -0.41134,0.04384 -2.96903,0.04384 -1.74346,0 -2.98585,-0.01161 -2.98585,-0.0279 z"
         id="path391"
         transform="translate(1073.477,495.16)" />
      <path
         style="fill:#008080;stroke-width:0.0439367"
         d="m 255.2065,62.214411 v -2.086995 h 5.53245 5.53244 l 0.0886,-0.274604 c 0.25877,-0.80169 0.25947,-1.685694 0.002,-2.519329 l -0.087,-0.281638 h -4.39191 -4.39191 v -3.097539 -3.09754 h 3.49406 3.49406 l 0.0467,-0.120826 c 0.1733,-0.448151 0.22875,-0.79161 0.22875,-1.416959 0,-0.62535 -0.0555,-0.968808 -0.22875,-1.41696 l -0.0467,-0.120826 h -3.49406 -3.49406 V 44.793497 41.8058 h 4.23457 4.23456 l 0.0471,-0.120826 c 0.10533,-0.270369 0.18085,-0.60367 0.23152,-1.021695 0.0646,-0.532758 0.0102,-1.084577 -0.16006,-1.623416 l -0.11169,-0.353571 h -5.38034 -5.38034 V 36.950791 35.21529 h 16.36643 16.36644 V 49.758348 64.301406 H 271.57293 255.2065 Z m 22.51758,-1.865722 c 3.37339,-0.472727 5.23065,-2.002402 5.7887,-4.767686 0.13316,-0.659865 0.14386,-2.295129 0.0188,-2.878894 -0.37261,-1.739746 -1.32211,-2.954764 -3.08263,-3.94465 -0.69908,-0.393068 -1.69126,-0.798357 -3.25214,-1.328435 -1.66936,-0.566917 -1.92827,-0.665772 -2.51487,-0.960217 -1.04994,-0.527026 -1.50245,-1.083906 -1.53984,-1.894993 -0.0588,-1.276132 0.6691,-2.253101 1.96212,-2.633482 0.72309,-0.212717 1.01812,-0.243519 2.33424,-0.243694 1.54004,-2.2e-4 2.18425,0.07563 3.6207,0.42625 l 0.74284,0.181317 0.10408,-0.128377 c 0.16442,-0.202815 0.42392,-0.670033 0.57154,-1.029079 0.21175,-0.514995 0.29103,-0.892093 0.29531,-1.40466 l 0.004,-0.460021 -0.4833,-0.143903 c -1.02297,-0.304588 -2.41563,-0.567327 -3.55888,-0.671416 -0.74643,-0.06796 -2.71807,-0.05512 -3.3773,0.02199 -2.68684,0.314296 -4.5066,1.421573 -5.41536,3.29509 -0.38324,0.790093 -0.57067,1.57682 -0.61758,2.592267 -0.0973,2.105834 0.67449,3.684601 2.33643,4.77951 0.84108,0.55412 1.61873,0.886245 3.77856,1.613791 1.56115,0.525879 1.9202,0.661796 2.44981,0.927378 1.33528,0.669589 1.91276,1.526754 1.81579,2.695224 -0.12515,1.508198 -0.99512,2.290348 -2.81569,2.531475 -0.55264,0.07319 -2.183,0.02502 -3.0536,-0.09024 -1.12851,-0.149394 -2.28391,-0.385169 -3.17137,-0.647164 -0.20976,-0.06193 -0.40974,-0.101711 -0.44439,-0.08841 -0.0347,0.0133 -0.16241,0.218602 -0.28389,0.456228 -0.36067,0.705481 -0.5545,1.39945 -0.60792,2.176516 l -0.0281,0.408432 0.58724,0.227492 c 1.37322,0.531969 2.78811,0.866502 4.32187,1.021852 0.51721,0.05239 3.06343,0.02378 3.51494,-0.0395 z"
         id="path430"
         transform="translate(1073.477,495.16)" />
      <path
         style="fill:#0080d2;stroke-width:0.248544;fill-opacity:1"
         d=""
         id="path469"
         transform="translate(1073.477,495.16)" />
      <path
         style="fill:#005f61;fill-opacity:1;stroke-width:0.0621359"
         d="m 220.08543,51.919218 c 0,-0.03161 0.50294,-1.528563 1.11764,-3.326555 1.00621,-2.943175 1.28817,-3.851813 1.66856,-5.37713 l 0.11622,-0.466019 0.0966,0.341747 c 0.0532,0.187961 0.21317,0.761165 0.35558,1.273786 0.19708,0.709362 2.22226,6.892298 2.45754,7.502913 0.0395,0.102614 -0.12295,0.108738 -2.88514,0.108738 -1.75185,0 -2.92704,-0.02308 -2.92704,-0.05748 z"
         id="path3655"
         transform="translate(1073.477,495.16)" />
      <path
         style="fill:#005f61;fill-opacity:1;stroke-width:0.0621359"
         d="m 255.25436,62.229125 v -2.050486 h 5.5232 5.5232 l 0.11563,-0.419417 c 0.15986,-0.579795 0.15986,-1.750303 0,-2.330097 l -0.11563,-0.419418 h -4.40475 -4.40475 v -3.075214 -3.075216 l 3.51996,-0.01605 3.51997,-0.01605 0.0927,-0.248543 c 0.058,-0.155707 0.1036,-0.566545 0.12195,-1.099896 0.0257,-0.745492 0.0128,-0.905811 -0.10373,-1.289321 l -0.13303,-0.437968 h -3.50889 -3.50889 v -2.951456 -2.951456 h 4.2539 4.2539 l 0.093,-0.313096 c 0.24953,-0.840242 0.25113,-1.706425 0.005,-2.529623 l -0.0977,-0.326213 h -5.37235 -5.37235 v -1.708738 -1.708738 h 16.34175 16.34175 V 49.770873 64.27961 H 271.59645 255.2547 Z m 23.255,-1.981512 c 2.90633,-0.641782 4.4773,-2.090467 5.02729,-4.635964 0.0505,-0.233534 0.0806,-0.82548 0.0806,-1.584466 6e-5,-1.310034 -0.0364,-1.526945 -0.41157,-2.443777 -0.49633,-1.213065 -1.59037,-2.276591 -3.13979,-3.052234 -0.68553,-0.343175 -1.29749,-0.581731 -3.21467,-1.253147 -1.60968,-0.563728 -2.29492,-0.867679 -2.84055,-1.259999 -0.66546,-0.478468 -0.93813,-1.133814 -0.81238,-1.952442 0.16934,-1.102337 0.85601,-1.789108 2.16948,-2.169791 0.45026,-0.130499 0.60132,-0.14027 2.13121,-0.13785 1.77051,0.0028 2.06038,0.03516 3.57282,0.398904 l 0.74563,0.179323 0.13424,-0.166144 c 0.16597,-0.205422 0.5304,-0.930399 0.67697,-1.346726 0.0647,-0.183799 0.12084,-0.568175 0.13745,-0.941184 l 0.0281,-0.630504 -0.33776,-0.09819 c -1.31871,-0.383359 -2.78997,-0.644125 -4.08751,-0.72447 -4.30897,-0.266815 -7.0507,0.760467 -8.3225,3.118301 -0.50553,0.93723 -0.74904,1.954846 -0.74863,3.128472 8.5e-4,2.404634 1.058,3.969461 3.44445,5.098582 0.37778,0.178741 1.51172,0.609511 2.51988,0.957266 1.00815,0.347756 2.14237,0.783755 2.52047,0.968886 1.23692,0.605631 1.81424,1.308091 1.87685,2.283671 0.0941,1.465979 -0.687,2.463396 -2.19178,2.798832 -1.37968,0.307551 -3.86864,0.111245 -6.29135,-0.496203 -0.4872,-0.122155 -0.92608,-0.206647 -0.9753,-0.18776 -0.12761,0.04897 -0.56314,0.98197 -0.71518,1.532066 -0.0708,0.25631 -0.1462,0.70674 -0.16746,1.000953 l -0.0387,0.534935 0.5213,0.19937 c 1.11616,0.42687 2.49511,0.787461 3.7213,0.97311 0.3687,0.05582 1.10971,0.07425 2.45437,0.06103 1.69889,-0.0167 1.99779,-0.03474 2.53267,-0.152852 z"
         id="path3694"
         transform="translate(1073.477,495.16)" />
    </g>
  </g>
  <path
     style="fill:#ffffff;stroke-width:0.248544"
     d="M 25.890582,84.499268 C 19.312946,83.250266 14.871263,79.121921 12.7016,72.240703 11.59317,68.725252 11.226599,65.849188 11.223615,60.644659 c -0.0052,-9.02146 1.733835,-14.79668 5.731583,-19.034503 2.699162,-2.861255 5.842926,-4.391496 10.225005,-4.977069 3.849117,-0.514353 9.820823,0.1918 12.92884,1.528832 1.185459,0.509972 1.243929,0.578898 1.119826,1.320112 -0.231188,1.380785 -0.837071,2.804776 -1.430643,3.362409 -0.495655,0.465644 -0.679091,0.504056 -1.292807,0.270721 -2.451921,-0.932218 -7.331995,-1.429047 -9.979394,-1.015978 -2.97511,0.4642 -4.471886,1.158422 -6.178107,2.865473 -2.635302,2.636588 -3.849971,6.096683 -4.348392,12.386799 -0.480456,6.063375 0.28632,12.118413 1.997769,15.775895 1.395619,2.98253 4.121872,5.116667 7.407665,5.798795 2.15723,0.447839 7.894614,0.170253 10.453805,-0.505776 1.932008,-0.510355 2.098569,-0.519171 2.52459,-0.133627 0.681137,0.616418 1.535794,2.788697 1.44856,3.681794 -0.06742,0.690266 -0.22516,0.839347 -1.319295,1.246869 -3.809319,1.418824 -10.71712,2.025353 -14.622038,1.283863 z"
     id="path205"
     transform="translate(-11,-35)" />
  <path
     style="fill:#ffffff;stroke-width:0.248544"
     d="M 58.904853,84.721058 C 55.840539,84.245733 53.0475,82.854863 51.251695,80.909961 49.616561,79.13907 48.796305,77.622019 47.95144,74.806193 47.358,72.828332 47.268878,72.05224 47.167179,67.976698 c -0.0991,-3.97139 -0.04496,-4.936799 0.39727,-7.083495 1.581062,-7.674938 6.334303,-11.624671 13.947574,-11.589819 7.773718,0.03559 12.078725,3.981228 12.799042,11.730625 0.15389,1.655616 -0.145413,5.839764 -0.526287,7.357286 l -0.145465,0.579577 H 63.600239 53.561164 l 0.0043,0.807767 c 0.0064,1.191477 0.643964,3.995613 1.188333,5.22625 0.672464,1.520218 1.911163,2.838456 3.383035,3.600267 1.081369,0.559696 1.656156,0.669758 3.957901,0.757882 3.036703,0.116259 5.042463,-0.195343 7.092101,-1.101792 l 1.382339,-0.611335 0.43799,0.569217 c 0.74379,0.966644 1.271435,2.259168 1.29577,3.174134 0.02197,0.826244 -0.05615,0.913187 -1.410433,1.569529 -2.324501,1.126556 -4.936201,1.691874 -8.259508,1.787822 -1.640388,0.04736 -3.318058,0.03406 -3.728155,-0.02956 z M 67.92425,62.046446 c 0.163488,-5.295297 -1.884077,-7.796339 -6.396116,-7.812674 -3.262633,-0.01181 -5.307935,1.281964 -6.645557,4.203714 -0.614468,1.342177 -1.309572,4.18145 -1.317097,5.379916 l -0.0043,0.687307 7.145631,-0.06595 7.145631,-0.06595 z"
     id="path244"
     transform="translate(-11,-35)" />
  <path
     style="fill:#ffffff;stroke-width:0.248544"
     d="m 89.874049,84.493231 c -6.026958,-1.307402 -8.976378,-7.102762 -8.971615,-17.628461 0.0033,-7.339376 1.430314,-12.06289 4.50392,-14.908507 1.685138,-1.560141 3.451564,-2.312716 6.134583,-2.613605 3.976923,-0.445994 7.169429,0.47528 9.633003,2.779832 l 1.59887,1.495668 v -9.069274 -9.069273 l 0.7767,-0.15534 c 0.42719,-0.08544 1.47573,-0.15534 2.3301,-0.15534 0.85437,0 1.90291,0.0699 2.3301,0.15534 l 0.7767,0.15534 v 24.172953 24.172954 l -0.55923,0.149864 c -0.73024,0.195699 -3.14783,0.198157 -4.11768,0.0042 -0.71695,-0.143392 -0.7718,-0.235873 -0.92133,-1.553398 -0.27557,-2.428205 -0.26523,-2.422039 -1.60447,-0.956697 -0.66185,0.724167 -1.76918,1.624623 -2.460734,2.001013 -2.417657,1.315855 -6.206967,1.726006 -9.448917,1.022742 z m 9.078932,-5.723616 c 1.481729,-0.916082 2.684419,-2.463165 3.230339,-4.155342 0.54089,-1.676584 0.78484,-11.028249 0.35246,-13.511178 -0.51582,-2.962041 -2.00286,-5.122357 -4.233963,-6.150955 -1.476773,-0.68083 -4.578314,-0.712209 -6.273956,-0.06347 -3.382433,1.294083 -4.928368,5.967669 -4.575919,13.833664 0.371159,8.283555 2.450084,11.05179 8.154281,10.858006 1.883418,-0.06399 2.303559,-0.165761 3.346758,-0.81072 z"
     id="path283"
     transform="translate(-11,-35)" />
  <path
     style="fill:#ffffff;stroke-width:0.248544"
     d="m 123.65651,84.47923 c -3.52288,-0.946683 -5.79658,-3.448911 -6.60661,-7.270631 -1.13563,-5.357854 0.54422,-9.90614 4.37581,-11.847753 2.34077,-1.186159 3.97812,-1.466409 8.56264,-1.465585 2.32388,4.23e-4 4.82703,0.08587 5.56255,0.189886 l 1.33731,0.189127 -0.11835,-2.68471 c -0.18169,-4.121188 -1.23562,-5.926911 -3.91372,-6.705457 -2.40618,-0.699495 -6.73818,-0.298134 -11.36105,1.052604 -0.76351,0.223086 -1.85438,-1.463218 -2.01274,-3.111379 -0.11708,-1.218443 -0.11552,-1.221451 0.84484,-1.627492 3.29732,-1.39412 8.62848,-2.176196 12.56838,-1.843771 6.81571,0.575069 9.54637,3.446529 10.14498,10.668063 0.13036,1.572681 0.23879,7.571812 0.24095,13.331403 l 0.004,10.471983 -0.55922,0.149864 c -0.85233,0.228417 -3.3105,0.185024 -3.98204,-0.07029 -0.50236,-0.191001 -0.66571,-0.545329 -1.03119,-2.236893 -0.23885,-1.10547 -0.53674,-2.009945 -0.66198,-2.009945 -0.12524,0 -0.2277,0.102832 -0.2277,0.228513 0,0.125684 -0.56987,0.85204 -1.26637,1.614127 -2.61462,2.860808 -7.64906,4.120785 -11.90042,2.978339 z m 8.40424,-4.971741 c 3.00142,-1.227351 4.76255,-4.617049 4.76255,-9.166631 v -1.836615 l -1.18058,-0.178193 c -0.64932,-0.09801 -2.75371,-0.188743 -4.67642,-0.201637 -3.4165,-0.02291 -3.52897,-0.0065 -4.95646,0.722862 -1.20547,0.615927 -1.57171,0.962142 -2.09641,1.981777 -1.10417,2.145716 -0.75615,6.080268 0.67798,7.664965 1.36924,1.51299 5.03235,2.010015 7.46934,1.013472 z"
     id="path322"
     transform="translate(-11,-35)" />
  <path
     style="fill:#ffffff;stroke-width:0.248544"
     d="m 153.16505,83.960708 c -0.40882,-0.106831 -0.43496,-1.119985 -0.43496,-16.857469 0,-11.572613 0.0817,-16.794316 0.26462,-16.907351 0.52307,-0.323271 4.09453,-0.417991 5.13198,-0.136106 l 1.04707,0.284501 0.0714,2.239652 0.0714,2.239651 1.05288,-1.447428 c 1.25659,-1.727466 3.05532,-3.157865 4.65752,-3.703789 1.6851,-0.574172 4.54102,-0.354856 6.42684,0.493537 1.42159,0.639546 1.44655,0.668106 1.27966,1.464539 -0.25875,1.234772 -0.97837,2.706847 -1.77953,3.640237 l -0.72066,0.839616 -1.10884,-0.585311 c -1.65799,-0.875185 -4.41386,-0.845601 -5.96101,0.06399 -1.28438,0.755097 -2.24476,1.650749 -3.26237,3.042487 l -0.70876,0.96933 v 12.110281 12.110281 l -0.7767,0.15534 c -0.86371,0.172741 -4.57149,0.161452 -5.25048,-0.01598 z"
     id="path361"
     transform="translate(-11,-35)" />
</svg>
